<?xml version="1.0" encoding="UTF-8"?>
<svg id="b" data-name="图层_2" xmlns="http://www.w3.org/2000/svg" viewBox="0 0 536.43 521.25">
  <defs>
    <style>
      .d {
        fill: #324299;
      }

      .e {
        fill: #fff;
      }

      .e, .f, .g {
        stroke: #1c1d1d;
        stroke-miterlimit: 10;
      }

      .f, .h {
        fill: #1f2020;
      }

      .g {
        fill: #222;
      }
    </style>
  </defs>
  <g id="c" data-name="图层_1">
    <circle class="d" cx="261.84" cy="234.24" r="234.24"/>
    <path class="h" d="M245.59,297.35s39.27-15.58,61.71,1.87c22.44,17.45-15.27,42.07-29.61,41.14-14.34-.93-43.01-20.88-32.1-43.01Z"/>
    <g>
      <path class="e" d="M408.2,353.43c-41.77,8.12-21.21,41.77-39.27,52.36-18.08,10.6-44.88,79.79-43.64,23.08,1.25-56.73-5.61-87.27-18.06-67.95-12.47,19.34,6.23,43.01-5.61,54.23-11.86,11.22-15.6-5.61-13.73-24.31s-17.04-35.53-17.88,52.36c-.82,87.89-64.4,88.52-70.01,62.96-5.61-25.56,14.96-54.23,0-66.07-14.96-11.86-49.85,15.58-64.2-16.21-14.34-31.79,14.96-37.4,12.47-61.71-2.51-24.31-32.43-16.83-25.56-38.02,4.11-12.7,4.36-29.86,3.05-41.87,1.12-.36,45.2-13.88,63.65-17.93,18.7-4.11,49.44-37.85,44.04-50.73-5.4-12.88,4.17-36.16-4.6-71.06-8.77-34.91,0-66.03,0-66.03,20.1-5.7,52.4-9.91,88.13,4.77v.02c-.41,1.16-16.83,48.24-32.84,72.46-16.19,24.52-2.08,65.24,0,72.72,2.09,7.48-2.08,15.78,1.66,19.11,3.74,3.33,68.98,39.89,78.97,33.66,9.97-6.25,54.73,9.54,54.73,9.54-.47,1.37-.84,2.37-1.14,2.92-2.49,4.58,31.58,53.61-10.17,61.71Z"/>
      <path class="f" d="M224.71,280.3s39.27-15.58,61.71,1.87c22.44,17.45-15.27,42.07-29.61,41.14s-43.01-20.88-32.1-43.01Z"/>
      <g>
        <path class="g" d="M228.85,142.56c-8.77-34.91,0-66.03,0-66.03-13.39,3.8-21.37,8.27-21.37,8.27C149.51,35.54,18.61,5.42,3.65,8.13c-14.96,2.69,27.43,40.5,40.52,59.73,13.09,19.22,8.1,16.31-6.86,39.38-14.96,23.06,10.6,6.84-3.74,41.76-14.32,34.91,41.14-10.6,30.56,11.84-10.6,22.44,28.05-7.48,19.93,12.47-7.97,19.63,17.88,10.27,18.68,9.99-.28.9-18.68,59.37-18.68,79.77s12.47-8.73,19.34-16.83c6.84-8.1,1.23,23.06,4.97,39.27,3.74,16.21,9.35-18.7,13.33-17.45,1.59.5,3.18,6.21,4.06,14.23,1.12-.36,45.2-13.88,63.65-17.93,18.7-4.11,49.44-37.85,44.04-50.73-5.4-12.88,4.17-36.16-4.6-71.06Z"/>
        <path class="g" d="M504.8,26.19c-16.83-18.06-49.85-8.71-49.85-8.71l-119.68,72.93c-6.17-3.63-12.27-6.62-18.29-9.09-.41,1.16-16.83,48.24-32.84,72.46-16.19,24.52-2.08,65.24,0,72.72,2.09,7.48-2.08,15.78,1.66,19.11,3.74,3.33,68.98,39.89,78.97,33.66,9.97-6.25,54.73,9.54,54.73,9.54,3.44-10.12,11.59-39.38,25.88-35.72,16.19,4.15-14.55-36.16-9.8-41.14,4.77-4.99,6.47,12.04,18.1,12.04s-19.11-31.99-2.9-48.62c16.19-16.62,38.33-107.52,38.33-107.52,17.88-3.44,31.27-9.87,31.27-9.87,0,0,15.99-5.61,15.52-9.35-.45-3.74-14.29-4.36-31.12-22.44Z"/>
      </g>
    </g>
  </g>
</svg>